<?xml version="1.0" encoding="UTF-8" standalone="no"?>
<!-- Created with Inkscape (http://www.inkscape.org/) -->

<svg
   xmlns:dc="http://purl.org/dc/elements/1.1/"
   xmlns:cc="http://creativecommons.org/ns#"
   xmlns:rdf="http://www.w3.org/1999/02/22-rdf-syntax-ns#"
   xmlns:svg="http://www.w3.org/2000/svg"
   xmlns="http://www.w3.org/2000/svg"
   xmlns:sodipodi="http://sodipodi.sourceforge.net/DTD/sodipodi-0.dtd"
   xmlns:inkscape="http://www.inkscape.org/namespaces/inkscape"
   width="28.708017mm"
   height="28.707291mm"
   viewBox="0 0 28.708017 28.707291"
   version="1.1"
   id="svg3730"
   inkscape:version="0.92.4 (5da689c313, 2019-01-14)"
   sodipodi:docname="freshsales-added.svg">
  <defs
     id="defs3724" />
  <sodipodi:namedview
     id="base"
     pagecolor="#ffffff"
     bordercolor="#666666"
     borderopacity="1.0"
     inkscape:pageopacity="0.0"
     inkscape:pageshadow="2"
     inkscape:zoom="22.4"
     inkscape:cx="22.49667"
     inkscape:cy="8.5567172"
     inkscape:document-units="mm"
     inkscape:current-layer="layer1"
     showgrid="false"
     inkscape:window-width="1920"
     inkscape:window-height="1017"
     inkscape:window-x="-8"
     inkscape:window-y="-8"
     inkscape:window-maximized="1" />
  <metadata
     id="metadata3727">
    <rdf:RDF>
      <cc:Work
         rdf:about="">
        <dc:format>image/svg+xml</dc:format>
        <dc:type
           rdf:resource="http://purl.org/dc/dcmitype/StillImage" />
        <dc:title></dc:title>
      </cc:Work>
    </rdf:RDF>
  </metadata>
  <g
     inkscape:label="Layer 1"
     inkscape:groupmode="layer"
     id="layer1"
     transform="translate(-18.89845,-248.09177)">
    <path
       style="fill:#008000;stroke-width:0.26458332"
       inkscape:connector-curvature="0"
       class="st1"
       d="m 33.213133,248.09177 h 10.768542 c 2.010833,0 3.624792,1.5875 3.624792,3.62479 v 10.76854 c 0,7.91104 -6.402917,14.31396 -14.313959,14.31396 h -0.07937 c -7.911041,0 -14.313958,-6.40292 -14.313958,-14.31396 -0.07937,-7.91104 6.323542,-14.31396 14.234583,-14.39333 z"
       id="path3754" />
    <path
       style="fill:#ffffff;stroke-width:0.26458332"
       inkscape:connector-curvature="0"
       class="st2"
       d="m 33.398342,255.26198 c 1.5875,0 2.8575,1.27 2.8575,2.8575 0,1.5875 -1.27,2.8575 -2.8575,2.8575 -1.5875,0 -2.8575,-1.27 -2.8575,-2.8575 -0.02646,-1.5875 1.27,-2.8575 2.8575,-2.8575"
       id="path3756" />
    <polygon
       style="fill:#ffffff"
       class="st2"
       points="52.9,329.4 71.7,348.2 71.7,358.7 80.9,358.7 80.9,348.2 99.7,329.4 "
       id="polygon3758"
       transform="matrix(0.26458333,0,0,0.26458333,13.078342,174.74927)" />
  </g>
  <style
     id="style3732"
     type="text/css">
	.st0{fill:#4D4D4D;}
	.st1{fill:#FFA800;}
	.st2{fill:#FFFFFF;}
</style>
</svg>
